<?xml version="1.0" standalone="no"?>
<!DOCTYPE svg PUBLIC "-//W3C//DTD SVG 20010904//EN"
 "http://www.w3.org/TR/2001/REC-SVG-20010904/DTD/svg10.dtd">
<svg version="1.0" xmlns="http://www.w3.org/2000/svg"
 width="260.000000pt" height="260.000000pt" viewBox="0 0 260.000000 260.000000"
 preserveAspectRatio="xMidYMid meet">
<metadata>
Created by potrace 1.11, written by Peter Selinger 2001-2013
</metadata>
<g transform="translate(0.000000,260.000000) scale(0.100000,-0.100000)"
fill="#000000" stroke="none">
<path d="M798 2227 l-488 -282 0 -577 0 -576 495 -286 495 -286 190 110 c104
61 194 110 199 110 6 0 16 -11 23 -24 62 -116 208 -356 229 -378 34 -35 71
-44 120 -29 54 16 82 60 76 121 -4 34 -26 82 -92 195 -48 83 -94 164 -101 180
-8 17 -20 38 -26 47 -7 9 -10 19 -8 21 3 2 90 52 194 112 216 124 209 103 61
187 -49 28 -91 52 -93 53 -1 1 11 31 28 66 72 156 95 373 56 542 -20 87 -32
100 -16 17 5 -29 10 -97 10 -152 0 -247 -89 -451 -275 -627 -97 -91 -177 -140
-299 -181 -468 -159 -970 105 -1106 582 -28 95 -37 255 -20 355 62 389 387
695 763 720 l87 6 0 128 c0 71 -3 129 -7 129 -5 -1 -227 -128 -495 -283z
m1027 -1568 c4 -11 5 -22 3 -24 -9 -9 -161 -96 -163 -93 -1 2 -7 13 -13 24
-10 19 -7 23 27 39 21 9 58 30 82 46 52 35 56 35 64 8z"/>
<path d="M1145 2104 c-86 -18 -197 -69 -282 -130 -199 -142 -318 -420 -283
-664 11 -81 41 -182 72 -242 24 -49 54 -51 63 -5 21 101 113 177 216 177 71 0
150 -38 184 -88 l25 -37 0 338 0 337 65 0 64 0 3 -117 c3 -113 4 -118 25 -121
22 -3 22 -1 25 115 l3 118 65 0 65 0 3 -377 2 -378 58 0 c47 1 54 3 37 12 -11
6 -32 22 -47 36 -25 23 -28 32 -28 94 l0 68 201 0 202 0 -6 -40 c-7 -52 -41
-105 -90 -141 l-40 -29 86 0 87 0 24 48 c13 26 34 80 46 120 19 63 21 89 18
219 -5 168 -20 228 -89 345 -157 267 -470 405 -774 342z"/>
<path d="M1270 1275 l0 -245 25 0 25 0 0 245 0 245 -25 0 -25 0 0 -245z"/>
<path d="M720 962 c0 -13 123 -132 171 -164 208 -143 502 -162 727 -49 79 40
173 112 222 171 l42 50 -581 0 c-320 0 -581 -4 -581 -8z"/>
</g>
</svg>
